<?xml version="1.0" standalone="no"?>
<!DOCTYPE svg PUBLIC "-//W3C//DTD SVG 20010904//EN"
 "http://www.w3.org/TR/2001/REC-SVG-20010904/DTD/svg10.dtd">
<svg version="1.0" xmlns="http://www.w3.org/2000/svg"
 width="1024pt" height="768pt" viewBox="0 0 1024.000000 768.000000"
 preserveAspectRatio="xMidYMid meet">

<g transform="translate(0.000000,768.000000) scale(0.100000,-0.100000)"
fill="#fff" stroke="none">
<path d="M4490 7460 c-146 -4 -320 -11 -387 -15 l-123 -8 0 -133 0 -134 -232
-2 -233 -3 0 -165 c0 -109 5 -182 14 -215 37 -136 75 -234 117 -303 26 -43 56
-94 67 -115 24 -43 113 -129 206 -200 36 -27 68 -53 71 -57 10 -14 157 -88
220 -110 36 -13 70 -27 75 -31 16 -12 220 -97 251 -105 16 -4 31 -10 34 -13 3
-3 34 -20 70 -37 125 -60 169 -120 170 -227 0 -67 -40 -163 -132 -317 -67
-111 -111 -225 -128 -330 -6 -41 -16 -97 -22 -125 -6 -27 -12 -132 -15 -232
l-4 -183 627 0 626 0 -5 183 c-5 187 -8 214 -59 426 -28 118 -59 191 -177 421
-62 122 -75 224 -35 285 17 26 95 80 158 108 22 10 43 22 46 26 3 4 50 24 105
44 179 63 429 184 481 232 14 13 65 51 113 84 47 32 102 77 122 98 60 62 159
235 202 353 18 48 21 86 25 284 l4 229 -236 -6 -236 -6 0 139 0 140 -54 0
c-30 0 -58 4 -61 10 -4 6 -159 9 -408 10 -221 0 -535 2 -697 4 -162 2 -414 1
-560 -4z m1494 -210 l109 2 -5 -274 c-5 -255 -7 -280 -33 -383 -27 -110 -95
-279 -147 -368 -15 -26 -28 -52 -28 -56 0 -21 -147 -142 -227 -186 -48 -27
-94 -56 -103 -65 -8 -8 -38 -30 -67 -48 -93 -59 -132 -131 -132 -242 -1 -81
10 -115 102 -337 41 -98 79 -194 85 -213 15 -49 41 -229 47 -330 3 -47 8 -101
10 -121 l5 -35 -462 -1 -461 0 7 101 c12 183 38 370 62 436 12 36 54 142 93
235 66 159 70 175 71 246 0 43 -7 95 -16 121 -18 54 -70 118 -122 149 -20 13
-39 26 -42 29 -3 4 -36 21 -74 38 -81 38 -183 108 -220 153 -15 18 -50 80 -78
138 -64 136 -70 151 -98 241 -12 41 -29 95 -37 120 -26 81 -43 252 -43 435 l0
180 31 14 c47 21 484 30 1114 24 303 -3 599 -4 659 -3z m-2010 -329 c11 -135
79 -388 127 -479 16 -29 29 -57 29 -63 0 -6 20 -51 45 -101 25 -50 43 -93 40
-96 -3 -3 -5 0 -5 6 0 7 -8 12 -18 12 -9 0 -41 16 -71 35 -29 19 -55 35 -57
35 -5 0 -65 41 -74 50 -3 3 -31 27 -62 54 -32 26 -65 62 -74 80 -91 169 -124
279 -131 429 l-6 117 125 0 125 0 7 -79z m2553 -63 c-5 -149 -20 -216 -68
-309 -29 -57 -118 -189 -127 -189 -4 0 -19 -11 -34 -25 -49 -46 -198 -135
-225 -135 -7 0 -13 -5 -13 -12 0 -6 -2 -9 -5 -6 -7 6 41 114 66 149 10 15 19
34 19 43 0 9 9 34 19 55 18 34 32 83 92 322 11 45 19 110 19 162 l0 87 131 0
132 0 -6 -142z"/>
<path d="M7626 4715 c-15 -12 -33 -31 -39 -43 -33 -57 -53 -82 -64 -82 -7 0
-48 -24 -91 -53 -42 -29 -108 -70 -147 -92 -38 -21 -103 -61 -144 -89 -104
-72 -459 -374 -515 -438 -25 -29 -94 -124 -152 -210 -88 -132 -114 -181 -160
-299 -53 -137 -85 -265 -98 -396 l-7 -61 49 -11 c26 -5 88 -22 138 -36 49 -15
110 -33 136 -40 74 -20 138 -54 198 -104 111 -91 142 -134 229 -317 46 -94 65
-215 56 -347 -10 -137 5 -123 -147 -130 -122 -6 -216 -22 -234 -40 -4 -4 -17
-7 -29 -7 -12 0 -40 -9 -63 -20 -22 -11 -47 -20 -55 -20 -8 0 -22 -9 -32 -20
-10 -11 -24 -20 -31 -20 -7 0 -14 -4 -16 -8 -1 -4 -25 -25 -51 -47 -91 -75
-150 -184 -197 -362 -17 -65 -20 -108 -20 -285 0 -114 1 -208 3 -209 1 0 563
-3 1249 -6 l1246 -6 33 24 c50 35 140 34 197 -4 53 -34 64 -34 119 5 l44 32
63 -32 c34 -17 74 -32 89 -32 39 0 227 176 244 228 6 20 12 86 12 146 1 109 1
110 -41 195 -55 111 -121 177 -209 211 -53 20 -84 25 -180 26 -64 1 -138 -3
-165 -8 -27 -5 -89 -19 -137 -29 -49 -10 -119 -19 -155 -19 -77 0 -232 17
-241 25 -3 4 -6 84 -7 178 0 140 -5 190 -23 267 -39 167 -81 288 -126 365 -25
41 -48 93 -51 115 -4 22 -10 40 -15 40 -5 0 -9 9 -9 20 0 24 27 37 43 21 6 -6
27 -11 47 -11 30 -1 40 -8 70 -46 19 -26 57 -64 83 -85 56 -45 96 -50 155 -20
39 20 112 88 112 104 0 5 19 28 43 52 23 23 52 55 65 70 l23 28 -26 39 c-14
21 -32 41 -40 44 -7 3 -25 23 -39 45 -32 48 -37 129 -8 129 10 0 23 5 30 12 9
9 18 8 39 -3 30 -15 83 -63 83 -74 0 -4 30 -38 68 -77 108 -111 156 -129 277
-99 44 10 87 22 96 26 9 3 53 -3 99 -15 69 -18 87 -19 118 -9 52 17 99 50 114
79 6 14 20 34 29 45 54 65 47 164 -20 285 -64 114 -85 174 -85 240 -1 52 3 60
48 115 26 32 61 86 78 119 29 58 30 62 23 154 l-7 94 33 34 c31 32 33 37 33
115 l1 81 55 18 c107 34 138 59 186 145 37 67 64 143 64 181 0 40 -37 93 -76
109 -28 12 -37 10 -105 -22 -93 -45 -185 -52 -342 -29 -140 21 -245 20 -330
-1 -50 -13 -72 -15 -85 -7 -9 6 -26 15 -37 21 -11 6 -34 17 -51 26 -17 9 -64
28 -105 42 -41 14 -83 30 -94 35 -11 5 -47 14 -80 20 -33 6 -94 18 -135 26
-90 17 -412 14 -475 -5 -22 -7 -62 -19 -88 -28 -62 -20 -135 -13 -177 17 -46
33 -126 35 -164 5z m1034 -169 c55 -12 203 -73 222 -91 3 -3 -1 -31 -9 -63
-35 -137 -35 -132 -3 -198 38 -78 38 -90 -2 -99 -85 -17 -118 -18 -118 -1 0
37 -93 157 -140 181 -30 16 -218 65 -248 65 -31 0 -204 60 -233 81 -15 10 -32
19 -38 19 -6 0 -11 4 -11 9 0 5 -9 11 -19 14 -10 2 -27 16 -36 31 -16 24 -16
26 0 43 12 12 42 19 94 24 113 11 466 1 541 -15z m-838 6 c2 -4 44 -44 94 -87
93 -82 258 -184 329 -204 66 -19 188 -41 225 -41 62 0 170 -84 170 -132 0 -36
-53 -92 -95 -102 -147 -34 -234 -35 -317 -1 -34 14 -69 25 -77 25 -59 0 -263
141 -322 223 -92 126 -123 244 -78 301 19 25 63 36 71 18z m2050 -56 c15 -23
-6 -92 -40 -134 -51 -63 -65 -68 -337 -117 -77 -14 -156 -30 -175 -35 -122
-31 -218 -19 -267 33 -23 23 -27 37 -28 85 0 92 50 142 165 164 55 11 50 11
180 -4 168 -19 315 -16 380 8 55 21 109 21 122 0z m-2268 -245 c94 -141 200
-247 309 -310 112 -63 117 -77 57 -161 -113 -158 -172 -255 -206 -335 -67
-165 -66 -161 -59 -275 11 -157 40 -258 118 -397 36 -65 78 -145 95 -178 16
-33 56 -114 89 -180 108 -215 133 -337 125 -602 l-3 -102 -32 5 c-18 3 -104
30 -192 59 -263 86 -318 103 -366 109 -25 4 -77 18 -115 31 -38 14 -77 25 -86
25 -9 0 -29 10 -43 23 -25 21 -28 31 -41 167 -16 172 -19 187 -51 265 -44 107
-56 129 -105 201 -26 39 -48 73 -48 77 0 28 -432 357 -469 357 -22 0 -32 41
-25 103 8 72 97 325 155 442 43 87 159 255 229 332 151 165 517 454 570 450
20 -2 39 -24 94 -106z m1807 -202 c27 -28 52 -63 55 -78 3 -14 11 -37 17 -50
16 -33 14 -174 -3 -208 -8 -16 -22 -37 -31 -48 -42 -48 -98 -173 -100 -222 -1
-54 22 -146 44 -172 8 -9 18 -27 22 -41 4 -14 12 -31 18 -39 19 -23 37 -84 37
-126 0 -50 -44 -108 -94 -125 -60 -19 -93 3 -166 113 -49 75 -82 111 -142 158
-43 34 -78 65 -78 70 0 5 -7 9 -17 9 -16 0 -113 67 -143 99 -42 44 -63 131
-43 179 19 46 36 49 101 19 32 -15 84 -34 117 -43 33 -9 77 -21 97 -27 83 -23
159 35 231 175 29 57 32 72 32 150 0 76 -3 89 -22 110 -13 14 -23 28 -23 34
-1 5 -14 25 -30 44 -46 53 -41 70 21 70 48 0 53 -3 100 -51z m-273 -48 c42
-11 110 -75 130 -121 31 -71 35 -90 21 -106 -10 -13 -15 -12 -33 5 -12 11 -45
31 -74 46 l-53 27 -109 -16 c-60 -9 -120 -16 -135 -16 -39 0 -83 26 -101 61
-15 30 -15 32 7 55 24 26 128 62 214 74 48 6 82 4 133 -9z m-461 -174 c55 -58
83 -104 83 -136 0 -12 -15 -38 -33 -58 -19 -21 -39 -47 -44 -57 -14 -26 -4
-94 19 -131 10 -16 18 -38 18 -47 0 -25 -48 -58 -84 -58 -46 0 -165 -25 -209
-43 -44 -19 -143 -100 -159 -131 -7 -12 -12 -75 -13 -141 -1 -66 -3 -139 -3
-162 l-2 -43 -89 0 c-102 0 -143 19 -174 81 -34 70 -29 291 10 414 35 111 143
277 226 347 125 106 315 218 371 218 27 0 43 -10 83 -53z m448 -97 c3 -5 14
-10 24 -10 26 0 82 -60 79 -84 -2 -12 -14 -23 -32 -27 -32 -9 -124 0 -132 12
-3 5 -12 9 -19 9 -21 0 -105 62 -105 77 0 8 13 13 38 13 20 0 44 5 52 10 20
13 87 13 95 0z m-220 -534 c28 -16 59 -34 70 -39 28 -15 138 -143 149 -173 24
-72 -115 -132 -203 -88 -17 9 -43 32 -56 52 -40 58 -128 153 -157 168 -41 21
-106 17 -163 -11 -77 -37 -87 -49 -93 -103 -4 -44 0 -55 42 -122 25 -41 46
-84 46 -96 0 -19 -22 -48 -117 -154 l-22 -24 -30 28 c-31 29 -31 29 -51 200
-15 131 -8 185 30 240 32 48 106 116 126 116 6 0 31 9 55 20 39 18 61 20 184
18 134 -3 142 -4 190 -32z m-1664 -1415 c30 -5 95 -15 144 -21 50 -7 131 -23
180 -37 50 -14 126 -33 170 -43 44 -10 100 -26 125 -35 25 -9 63 -20 85 -25
76 -16 210 -50 235 -60 14 -5 87 -14 162 -20 111 -8 161 -7 265 5 70 9 148 22
172 30 57 19 184 29 254 21 77 -10 133 -54 175 -138 34 -66 36 -83 33 -260
l-1 -68 -60 0 -60 0 0 73 c0 100 -21 156 -77 208 -44 40 -46 41 -97 35 -28 -4
-55 -11 -60 -16 -5 -5 5 -25 26 -48 48 -53 62 -100 55 -179 -6 -62 -35 -123
-58 -123 -26 0 -55 53 -73 130 -23 103 -59 150 -115 150 -52 0 -107 -17 -137
-44 l-27 -23 39 -22 c21 -12 46 -26 53 -30 8 -4 24 -19 34 -33 17 -23 18 -30
7 -63 -8 -23 -21 -40 -38 -48 -32 -13 -2172 -11 -2186 3 -4 4 -6 79 -4 167 l3
158 39 70 c70 125 170 208 316 261 70 25 327 40 421 25z"/>
<path d="M1700 4715 c-36 -8 -92 -19 -125 -25 -33 -6 -69 -15 -80 -20 -11 -5
-53 -21 -94 -35 -41 -14 -88 -33 -105 -42 -17 -9 -38 -19 -46 -23 -8 -4 -25
-13 -37 -21 -19 -12 -32 -11 -90 4 -85 21 -190 22 -330 1 -157 -23 -249 -16
-342 29 -68 32 -77 34 -105 22 -39 -16 -76 -69 -76 -109 0 -38 27 -114 64
-181 48 -86 79 -111 186 -145 l55 -18 1 -81 c0 -78 2 -83 33 -115 l33 -34 -7
-94 c-7 -92 -6 -96 23 -154 17 -33 52 -87 78 -119 45 -55 49 -63 48 -115 0
-66 -21 -126 -85 -240 -67 -121 -74 -220 -20 -285 9 -11 23 -31 29 -45 15 -29
62 -62 114 -79 31 -10 49 -9 118 9 46 12 90 18 99 15 9 -4 52 -16 96 -26 121
-30 169 -12 278 99 37 39 67 73 67 77 0 11 53 59 83 74 21 11 30 12 39 3 7 -7
20 -12 30 -12 29 0 24 -81 -8 -129 -14 -22 -32 -42 -39 -45 -8 -3 -26 -23 -40
-44 l-26 -39 23 -28 c13 -15 42 -47 66 -70 23 -24 42 -47 42 -52 0 -16 73 -84
112 -104 59 -30 99 -25 155 20 26 21 64 59 83 85 30 38 40 45 70 46 20 0 41 5
47 11 16 16 43 3 43 -21 0 -11 -4 -20 -9 -20 -5 0 -11 -18 -15 -40 -3 -22 -26
-74 -51 -115 -45 -77 -87 -198 -126 -365 -18 -77 -23 -127 -23 -267 -1 -94 -4
-174 -7 -178 -9 -8 -164 -25 -241 -25 -36 0 -106 9 -155 19 -48 10 -110 24
-137 29 -27 5 -101 9 -165 8 -96 -1 -127 -6 -180 -26 -88 -34 -154 -100 -208
-211 -43 -85 -43 -86 -42 -195 0 -60 6 -126 12 -146 17 -52 205 -228 244 -228
15 0 55 15 89 32 l63 32 44 -32 c55 -39 66 -39 119 -5 57 38 147 39 197 4 l33
-24 1246 6 c686 3 1248 6 1250 6 1 1 2 95 2 209 0 177 -3 220 -20 285 -47 178
-106 287 -197 362 -26 22 -49 43 -51 47 -2 4 -9 8 -16 8 -7 0 -21 9 -31 20
-10 11 -24 20 -32 20 -8 0 -33 9 -55 20 -23 11 -51 20 -63 20 -12 0 -25 3 -29
7 -18 18 -112 34 -234 40 -152 7 -137 -7 -147 130 -9 132 10 253 56 347 87
183 118 226 229 317 60 50 124 84 198 104 26 7 87 25 136 40 50 14 112 31 138
36 l49 11 -7 61 c-13 131 -45 259 -98 396 -46 118 -72 167 -160 299 -58 86
-127 181 -152 210 -56 64 -411 366 -515 438 -41 28 -105 68 -144 89 -38 22
-105 63 -147 92 -43 29 -84 53 -90 53 -13 1 -68 73 -68 89 0 5 -15 20 -32 33
-44 33 -120 32 -168 -2 -42 -30 -114 -37 -177 -17 -26 9 -66 21 -88 28 -59 18
-404 21 -485 4z m412 -164 c105 -9 130 -26 103 -67 -9 -15 -26 -29 -36 -31
-10 -3 -19 -9 -19 -14 0 -5 -5 -9 -11 -9 -6 0 -23 -9 -38 -19 -29 -21 -202
-81 -233 -81 -30 0 -218 -49 -248 -65 -47 -24 -140 -144 -140 -181 0 -17 -33
-16 -117 1 -41 9 -41 21 -3 99 32 66 32 61 -3 198 -8 32 -12 60 -9 63 13 12
154 75 195 86 86 24 392 35 559 20z m377 -27 c45 -57 14 -175 -78 -301 -59
-82 -263 -223 -322 -223 -8 0 -43 -11 -77 -25 -83 -34 -170 -33 -317 1 -42 10
-95 66 -95 102 0 48 108 132 170 132 37 0 159 22 225 41 71 20 236 122 329
204 50 43 93 83 94 87 8 18 52 7 71 -18z m-1969 -46 c68 -20 160 -20 370 3
111 11 108 11 160 1 115 -22 165 -72 165 -164 -1 -48 -5 -62 -28 -85 -49 -52
-145 -64 -267 -33 -19 5 -98 21 -175 35 -272 49 -286 54 -337 117 -35 43 -55
111 -40 134 8 14 51 23 72 16 8 -2 44 -13 80 -24z m2361 -220 c128 -89 329
-263 419 -361 70 -77 186 -245 229 -332 58 -117 147 -370 155 -442 7 -62 -3
-103 -25 -103 -37 0 -469 -329 -469 -357 0 -4 -22 -38 -48 -77 -49 -72 -61
-94 -105 -201 -32 -78 -35 -93 -51 -265 -13 -136 -16 -146 -41 -167 -14 -13
-34 -23 -43 -23 -9 0 -48 -11 -86 -25 -38 -13 -90 -27 -115 -31 -48 -6 -103
-23 -366 -109 -88 -29 -174 -56 -192 -59 l-32 -5 -3 102 c-8 265 17 387 125
602 33 66 73 147 89 180 17 33 59 113 95 178 78 139 107 240 118 397 7 114 8
110 -59 275 -34 80 -93 177 -206 335 -60 84 -55 98 57 161 106 61 217 171 299
296 71 110 83 123 106 123 10 0 77 -41 149 -92z m-1901 -186 c0 -10 -13 -33
-30 -52 -16 -19 -29 -39 -30 -44 0 -6 -10 -20 -22 -34 -20 -21 -23 -34 -23
-110 0 -78 3 -93 32 -150 72 -140 148 -198 231 -175 20 6 64 18 97 27 33 9 85
28 117 43 65 30 82 27 101 -19 20 -48 -1 -135 -43 -179 -30 -32 -127 -99 -143
-99 -10 0 -17 -4 -17 -9 0 -5 -35 -36 -78 -70 -60 -47 -93 -83 -142 -158 -73
-110 -106 -132 -166 -113 -50 17 -94 75 -94 125 0 42 18 103 37 126 6 8 14 25
18 39 4 14 14 32 22 41 22 26 45 118 44 172 -2 49 -58 174 -100 222 -9 11 -23
32 -31 48 -17 34 -19 175 -3 208 6 13 14 36 17 50 3 15 28 50 55 78 47 48 52
51 100 51 42 0 51 -3 51 -18z m350 -94 c55 -14 94 -31 113 -48 29 -26 29 -27
13 -58 -18 -35 -62 -62 -101 -62 -15 0 -75 7 -135 16 l-109 16 -53 -27 c-29
-15 -62 -35 -74 -46 -18 -17 -23 -18 -33 -5 -14 16 -10 35 21 106 35 83 144
144 238 133 19 -2 73 -14 120 -25z m415 -143 c82 -42 202 -123 272 -183 83
-70 191 -236 226 -347 39 -123 44 -344 10 -414 -31 -62 -72 -81 -174 -81 l-89
0 -2 43 c0 23 -2 96 -3 162 -1 66 -6 129 -13 141 -16 31 -115 112 -159 131
-44 18 -163 43 -209 43 -36 0 -84 33 -84 58 0 9 8 31 18 47 23 37 33 105 19
131 -5 10 -25 36 -44 57 -18 20 -33 46 -33 58 0 32 28 78 83 136 61 65 87 68
182 18z m-490 -121 c25 -3 45 -11 45 -18 0 -15 -85 -76 -105 -76 -7 0 -16 -4
-19 -9 -8 -12 -100 -21 -132 -12 -18 4 -30 15 -32 27 -3 24 53 84 79 84 10 0
21 5 25 11 4 7 23 9 50 5 24 -3 64 -9 89 -12z m454 -514 c24 -11 49 -20 55
-20 20 0 94 -68 126 -116 38 -55 45 -109 30 -240 -20 -171 -20 -171 -51 -200
l-30 -28 -22 24 c-95 106 -117 135 -117 154 0 12 21 55 46 96 42 67 46 78 42
122 -6 54 -16 66 -93 103 -57 28 -122 32 -163 11 -29 -15 -117 -110 -157 -168
-13 -20 -39 -43 -56 -52 -88 -44 -227 16 -203 88 10 30 122 161 144 170 8 3
35 17 60 32 65 39 82 42 220 43 104 0 132 -3 169 -19z m1696 -1452 c150 -45
257 -130 331 -263 l39 -70 3 -158 c2 -88 0 -163 -4 -167 -14 -14 -2154 -16
-2186 -3 -17 8 -30 25 -38 48 -11 33 -10 40 7 63 10 14 26 29 34 33 7 4 32 18
53 30 l39 22 -27 23 c-30 27 -85 44 -137 44 -56 0 -92 -47 -115 -150 -18 -77
-47 -130 -73 -130 -23 0 -52 61 -58 123 -7 79 7 126 55 179 21 23 31 43 26 48
-5 5 -32 12 -60 16 -51 6 -53 5 -97 -35 -56 -52 -77 -108 -77 -208 l0 -73 -60
0 -60 0 -1 68 c-3 177 -1 194 33 260 42 84 98 128 175 138 70 8 197 -2 254
-21 24 -8 102 -21 172 -30 104 -12 154 -13 265 -5 75 6 148 15 162 20 25 10
159 44 235 60 22 5 60 16 85 25 25 9 81 25 125 35 44 10 121 29 170 43 50 14
131 30 180 37 50 7 110 16 135 20 81 15 337 1 415 -22z"/>
<path d="M3774 4293 c3 -16 19 -156 36 -313 17 -157 33 -298 36 -315 l5 -30
1269 0 1268 0 6 40 c3 22 19 164 36 315 16 151 32 287 35 303 l5 27 -1351 0
-1351 0 6 -27z m2476 -200 c0 -31 -20 -207 -26 -235 l-6 -28 -1098 0 c-1038 0
-1099 1 -1104 18 -5 15 -26 218 -26 250 0 9 233 12 1130 12 1070 0 1130 -1
1130 -17z"/>
<path d="M4294 3368 c4 -95 11 -256 16 -358 5 -102 14 -284 20 -405 6 -121 15
-312 20 -425 21 -441 30 -623 40 -835 5 -121 13 -266 16 -322 l6 -103 709 0
709 0 4 23 c3 18 69 1394 107 2242 4 105 11 227 14 273 l7 82 -837 0 -838 0 7
-172z m1449 -55 c2 -5 0 -87 -4 -183 -17 -375 -29 -676 -39 -935 -6 -148 -17
-436 -25 -639 -8 -202 -15 -386 -15 -407 l0 -39 -538 0 -538 0 -13 323 c-6
177 -20 545 -31 817 -11 272 -19 520 -19 550 1 53 1 54 11 20 21 -78 110 -168
186 -190 57 -15 137 -12 190 9 45 17 51 17 78 2 43 -23 177 -22 232 3 41 19
44 19 80 1 47 -22 145 -31 198 -16 97 26 173 106 200 212 15 58 -3 141 -45
204 -32 48 -115 100 -186 116 -47 10 -59 9 -116 -11 -80 -28 -98 -28 -178 0
-59 21 -69 22 -115 10 -28 -7 -63 -19 -78 -26 -23 -12 -32 -11 -70 5 -74 33
-110 35 -181 12 -111 -37 -177 -110 -202 -223 l-13 -63 -1 61 c-1 33 -4 136
-8 227 l-6 167 621 0 c341 0 623 -3 625 -7z m-876 -241 c9 -6 5 -22 -15 -62
-45 -91 -37 -173 26 -292 7 -14 -90 -20 -129 -9 -49 15 -108 65 -125 108 -40
94 7 207 101 249 33 14 123 18 142 6z m314 -9 c9 -9 5 -24 -12 -60 -34 -69
-33 -162 3 -232 l27 -50 -37 -11 c-46 -12 -102 -13 -122 0 -12 7 -11 15 10 52
21 36 25 56 25 128 0 75 -3 91 -27 132 -25 42 -26 47 -10 52 29 8 132 0 143
-11z m324 -2 c127 -57 151 -226 45 -314 -61 -51 -170 -62 -218 -22 -2 2 7 23
20 47 32 60 32 175 0 235 -27 52 -27 52 1 63 37 15 110 11 152 -9z m-525 -93
c11 -24 20 -59 20 -78 0 -38 -33 -120 -48 -120 -18 0 -54 102 -49 136 7 41 36
104 49 104 5 0 18 -19 28 -42z m299 3 c19 -34 23 -95 9 -135 -17 -52 -33 -55
-48 -11 -15 47 -15 98 0 136 14 34 25 37 39 10z"/>
</g>
</svg>
